/* XPM */
static char *bitcoin__[] = {
/* columns rows colors chars-per-pixel */
"16 16 133 2",
"  	c None",
". 	c #82C983",
"+ 	c #7EC77F",
"@ 	c #78C67A",
"# 	c #73C575",
"$ 	c #6EC46F",
"% 	c #67C369",
"& 	c #7FC881",
"* 	c #7AC67B",
"= 	c #74C676",
"- 	c #6FC571",
"; 	c #6AC36C",
"> 	c #64C266",
", 	c #5FC161",
"' 	c #5AC15C",
") 	c #53BF55",
"! 	c #7CC77D",
"~ 	c #76C678",
"{ 	c #71C473",
"] 	c #66C168",
"^ 	c #9DD89E",
"/ 	c #8FD391",
"( 	c #58BF5A",
"_ 	c #57C058",
": 	c #51BF53",
"< 	c #4BBE4E",
"[ 	c #46BD49",
"} 	c #79C67A",
"| 	c #6DC46F",
"1 	c #68C36A",
"2 	c #7ACB7B",
"3 	c #FFFFFF",
"4 	c #CAEACB",
"5 	c #4FBE52",
"6 	c #4DBE50",
"7 	c #48BD4A",
"8 	c #42BC46",
"9 	c #3DBB40",
"0 	c #74C575",
"a 	c #6FC471",
"b 	c #65C266",
"c 	c #63C264",
"d 	c #A2DCA3",
"e 	c #99D99A",
"f 	c #44BC47",
"g 	c #3FBC42",
"h 	c #39BB3D",
"i 	c #34BA37",
"j 	c #2FB932",
"k 	c #6CC36E",
"l 	c #67C368",
"m 	c #61C263",
"n 	c #5CC15F",
"o 	c #81D083",
"p 	c #EFF9EF",
"q 	c #BDE7BE",
"r 	c #4EC050",
"s 	c #3CBB3E",
"t 	c #37BA39",
"u 	c #31B834",
"v 	c #2CB72F",
"w 	c #25B729",
"x 	c #63C265",
"y 	c #5DC160",
"z 	c #58C05B",
"A 	c #4EBE50",
"B 	c #BEE7BF",
"C 	c #F9FCFA",
"D 	c #BDE8BE",
"E 	c #31B733",
"F 	c #33B936",
"G 	c #2DB830",
"H 	c #28B72B",
"I 	c #23B626",
"J 	c #1DB521",
"K 	c #5BC15D",
"L 	c #55C057",
"M 	c #50BF52",
"N 	c #4ABE4D",
"O 	c #4EBF50",
"P 	c #C7EBC8",
"Q 	c #26B429",
"R 	c #2AB82D",
"S 	c #25B728",
"T 	c #1FB623",
"U 	c #19B41D",
"V 	c #14B318",
"W 	c #51BE54",
"X 	c #4CBE4F",
"Y 	c #47BD49",
"Z 	c #42BC45",
"` 	c #87D588",
" .	c #88D68A",
"..	c #2BB72D",
"+.	c #24B627",
"@.	c #1EB522",
"#.	c #1CB520",
"$.	c #16B41A",
"%.	c #11B315",
"&.	c #0BB20F",
"*.	c #43BC46",
"=.	c #3DBB41",
"-.	c #36B939",
";.	c #B5E5B6",
">.	c #BEE9BF",
",.	c #A8E1A9",
"'.	c #A5E1A7",
").	c #9EDF9F",
"!.	c #09B00D",
"~.	c #0EB211",
"{.	c #08B10C",
"].	c #06B10A",
"^.	c #3ABA3D",
"/.	c #35BA38",
"(.	c #1DB220",
"_.	c #B5E7B6",
":.	c #06B00A",
"<.	c #07B20B",
"[.	c #31B934",
"}.	c #03AC07",
"|.	c #00AC03",
"1.	c #00AB00",
"2.	c #00A900",
"3.	c #00A800",
"4.	c #00AC00",
"5.	c #1EB521",
"6.	c #18B41C",
"7.	c #13B417",
"8.	c #06B20A",
"9.	c #08B20B",
"0.	c #11B314",
"a.	c #0AB20E",
"b.	c #07B10B",
"                                ",
"          . + @ # $ %           ",
"        & * = - ; > , ' )       ",
"      ! ~ { ] ^ / ( _ : < [     ",
"    } # | 1 2 3 4 5 6 7 8 9     ",
"  0 a ; b c d 3 e < f g h i j   ",
"  k l m n o p 3 q r s t u v w   ",
"  x y z A B C 3 D E F G H I J   ",
"  K L M N O 3 P Q j R S T U V   ",
"  W X Y Z ` 3  ...+.@.#.$.%.&.  ",
"  7 *.=.-.;.3 >.,.'.).!.~.{.].  ",
"    ^./.(.3 3 3 3 3 _.:.<.<.    ",
"    [.v R }.|.1.2.3.4.<.<.].    ",
"      +.5.6.7.~.{.8.9.<.].      ",
"          0.a.b.<.<.<.          ",
"                                "};
