/* XPM */
static char *bitcoin__[] = {
/* columns rows colors chars-per-pixel */
"32 32 370 2",
"  	c None",
". 	c #82C884",
"+ 	c #81C882",
"@ 	c #7FC780",
"# 	c #7CC87D",
"$ 	c #7AC67B",
"% 	c #77C678",
"& 	c #74C576",
"* 	c #72C573",
"= 	c #6EC570",
"- 	c #6BC46D",
"; 	c #84C885",
"> 	c #83C984",
", 	c #80C981",
"' 	c #7DC77E",
") 	c #7AC77B",
"! 	c #77C679",
"~ 	c #75C676",
"{ 	c #72C674",
"] 	c #70C571",
"^ 	c #6DC46F",
"/ 	c #6AC46C",
"( 	c #67C469",
"_ 	c #65C367",
": 	c #61C263",
"< 	c #80C882",
"[ 	c #7EC780",
"} 	c #7BC77C",
"| 	c #79C67A",
"1 	c #76C677",
"2 	c #73C675",
"3 	c #70C572",
"4 	c #6EC46F",
"5 	c #6CC46D",
"6 	c #68C36A",
"7 	c #66C368",
"8 	c #63C365",
"9 	c #5DC160",
"0 	c #5BC15D",
"a 	c #57C059",
"b 	c #82C883",
"c 	c #7FC880",
"d 	c #7CC77D",
"e 	c #74C675",
"f 	c #71C673",
"g 	c #6FC570",
"h 	c #6CC46E",
"i 	c #6AC36B",
"j 	c #66C369",
"k 	c #64C366",
"l 	c #61C264",
"m 	c #5FC161",
"n 	c #5CC15E",
"o 	c #59C15C",
"p 	c #57C159",
"q 	c #54C056",
"r 	c #51BE53",
"s 	c #80C881",
"t 	c #7DC87E",
"u 	c #7AC77C",
"v 	c #78C779",
"w 	c #75C677",
"x 	c #72C574",
"y 	c #67C269",
"z 	c #64C266",
"A 	c #62C264",
"B 	c #5FC162",
"C 	c #60C162",
"D 	c #5CC25F",
"E 	c #5BC15C",
"F 	c #58C15A",
"G 	c #55C057",
"H 	c #52C055",
"I 	c #4FBF52",
"J 	c #4DBF4F",
"K 	c #4ABE4D",
"L 	c #7EC880",
"M 	c #7BC77D",
"N 	c #76C678",
"O 	c #73C575",
"P 	c #71C572",
"Q 	c #6EC470",
"R 	c #66C267",
"S 	c #D9F0DA",
"T 	c #D0EDD1",
"U 	c #CFECD0",
"V 	c #ACDFAD",
"W 	c #59C05B",
"X 	c #58C05A",
"Y 	c #56C058",
"Z 	c #53BF55",
"` 	c #50BF53",
" .	c #4EBE50",
"..	c #4BBF4E",
"+.	c #48BD4B",
"@.	c #45BD48",
"#.	c #43BC46",
"$.	c #7CC77E",
"%.	c #79C67B",
"&.	c #77C779",
"*.	c #75C576",
"=.	c #6AC46B",
"-.	c #8AD28C",
";.	c #FFFFFF",
">.	c #FFFEFF",
",.	c #A0DBA1",
"'.	c #57C15A",
").	c #54BF56",
"!.	c #51C054",
"~.	c #4FBF51",
"{.	c #4CBE4E",
"].	c #49BE4B",
"^.	c #46BD4A",
"/.	c #45BD47",
"(.	c #41BC44",
"_.	c #3FBC41",
":.	c #78C679",
"<.	c #73C574",
"[.	c #63C264",
"}.	c #B0E0B1",
"|.	c #FEFEFE",
"1.	c #73CB75",
"2.	c #52BF54",
"3.	c #4FC052",
"4.	c #4DBE4F",
"5.	c #48BE4A",
"6.	c #42BC45",
"7.	c #3FBC42",
"8.	c #3DBB3F",
"9.	c #3ABB3E",
"0.	c #38BA3B",
"a.	c #69C36A",
"b.	c #61C162",
"c.	c #DCF1DC",
"d.	c #FEFFFE",
"e.	c #40BA43",
"f.	c #4EBE51",
"g.	c #4BBE4D",
"h.	c #43BD46",
"i.	c #41BC43",
"j.	c #3EBB41",
"k.	c #3BBC3E",
"l.	c #38BB3B",
"m.	c #36BA38",
"n.	c #33BA36",
"o.	c #6FC571",
"p.	c #67C369",
"q.	c #5DC15F",
"r.	c #7ACC7B",
"s.	c #6CC86E",
"t.	c #DEF2DF",
"u.	c #6BC96D",
"v.	c #53C256",
"w.	c #47BE49",
"x.	c #44BD47",
"y.	c #41BC45",
"z.	c #3CBC3F",
"A.	c #39BB3C",
"B.	c #36BB3A",
"C.	c #34BA37",
"D.	c #31BA35",
"E.	c #2FB932",
"F.	c #2CB82F",
"G.	c #6FC572",
"H.	c #6BC46C",
"I.	c #68C46A",
"J.	c #62C265",
"K.	c #60C262",
"L.	c #5DC260",
"M.	c #4FBD52",
"N.	c #FEFEFF",
"O.	c #7DD07E",
"P.	c #40BC42",
"Q.	c #3DBC40",
"R.	c #3BBB3D",
"S.	c #38BA3A",
"T.	c #35BA38",
"U.	c #32B935",
"V.	c #2DB830",
"W.	c #2AB82E",
"X.	c #27B72B",
"Y.	c #64C265",
"Z.	c #5EC260",
"`.	c #5BC15E",
" +	c #58C15B",
".+	c #55C058",
"++	c #6BC86D",
"@+	c #AEE1AF",
"#+	c #83D385",
"$+	c #5FC661",
"%+	c #48BF4B",
"&+	c #3EBC41",
"*+	c #3BBB3E",
"=+	c #39BB3B",
"-+	c #36BA39",
";+	c #31B933",
">+	c #2EB831",
",+	c #2BB82F",
"'+	c #29B72C",
")+	c #25B729",
"!+	c #23B726",
"~+	c #64C367",
"{+	c #5FC261",
"]+	c #5CC15F",
"^+	c #5AC15C",
"/+	c #55C056",
"(+	c #7ACE7C",
"_+	c #99DA9B",
":+	c #E0F3E1",
"<+	c #91D892",
"[+	c #73CE75",
"}+	c #3ABA3C",
"|+	c #37BA39",
"1+	c #34BA38",
"2+	c #2EB932",
"3+	c #2CB92F",
"4+	c #29B82D",
"5+	c #27B72A",
"6+	c #24B727",
"7+	c #21B725",
"8+	c #1FB522",
"9+	c #63C364",
"0+	c #5AC15D",
"a+	c #B1E2B2",
"b+	c #B9E7BA",
"c+	c #30B933",
"d+	c #2AB82D",
"e+	c #28B72B",
"f+	c #25B728",
"g+	c #22B726",
"h+	c #20B623",
"i+	c #1DB520",
"j+	c #1BB51E",
"k+	c #51BF53",
"l+	c #4BBE4E",
"m+	c #64C866",
"n+	c #A3DFA4",
"o+	c #3CBB3E",
"p+	c #2EB931",
"q+	c #2BB92F",
"r+	c #29B82C",
"s+	c #26B729",
"t+	c #23B626",
"u+	c #21B724",
"v+	c #1EB621",
"w+	c #18B51C",
"x+	c #16B419",
"y+	c #57C05A",
"z+	c #49BE4C",
"A+	c #47BE4A",
"B+	c #90D791",
"C+	c #6CCD6F",
"D+	c #31B934",
"E+	c #2FB832",
"F+	c #27B82A",
"G+	c #24B728",
"H+	c #1FB622",
"I+	c #1CB520",
"J+	c #19B51D",
"K+	c #16B41A",
"L+	c #14B418",
"M+	c #11B315",
"N+	c #50BF52",
"O+	c #4DBF50",
"P+	c #48BD4A",
"Q+	c #42BC46",
"R+	c #C3EAC4",
"S+	c #2AB72E",
"T+	c #2EB930",
"U+	c #2BB82D",
"V+	c #20B624",
"W+	c #1DB521",
"X+	c #1AB51E",
"Y+	c #18B41B",
"Z+	c #15B419",
"`+	c #12B416",
" @	c #10B314",
".@	c #0DB310",
"+@	c #49BD4C",
"@@	c #46BD48",
"#@	c #44BD46",
"$@	c #28B42B",
"%@	c #E3F5E3",
"&@	c #24B527",
"*@	c #2CB82E",
"=@	c #23B727",
"-@	c #1EB622",
";@	c #1BB51F",
">@	c #19B51C",
",@	c #13B417",
"'@	c #0EB212",
")@	c #0BB30F",
"!@	c #09B20C",
"~@	c #4ABE4C",
"{@	c #47BD4A",
"]@	c #42BD44",
"^@	c #3CBB3F",
"/@	c #3ABB3D",
"(@	c #4CC14E",
"_@	c #B5E6B6",
":@	c #4FC452",
"<@	c #4EC350",
"[@	c #4CC34F",
"}@	c #49C34C",
"|@	c #47C34A",
"1@	c #45C248",
"2@	c #42C244",
"3@	c #14B318",
"4@	c #12B315",
"5@	c #0FB313",
"6@	c #0CB210",
"7@	c #09B20D",
"8@	c #07B10B",
"9@	c #07B20B",
"0@	c #40BC43",
"a@	c #3DBB40",
"b@	c #36BB39",
"c@	c #82D483",
"d@	c #C3EBC4",
"e@	c #0DB211",
"f@	c #0AB20E",
"g@	c #07B20C",
"h@	c #07B20A",
"i@	c #39BA3C",
"j@	c #34BA36",
"k@	c #B4E5B5",
"l@	c #76D378",
"m@	c #0FB312",
"n@	c #08B20D",
"o@	c #37BA3A",
"p@	c #32BA35",
"q@	c #30B932",
"r@	c #1AB21D",
"s@	c #34BE38",
"t@	c #08B30B",
"u@	c #08B30C",
"v@	c #2BB82E",
"w@	c #2BB92E",
"x@	c #0AAE0E",
"y@	c #09AE0D",
"z@	c #07AE0A",
"A@	c #04AD07",
"B@	c #00AD05",
"C@	c #00AC02",
"D@	c #00AB00",
"E@	c #00A900",
"F@	c #05B109",
"G@	c #07B30B",
"H@	c #26B72A",
"I@	c #16B51A",
"J@	c #14B417",
"K@	c #11B415",
"L@	c #0CB30F",
"M@	c #09B10D",
"N@	c #08B20B",
"O@	c #08B20C",
"P@	c #22B625",
"Q@	c #1FB623",
"R@	c #17B51B",
"S@	c #15B418",
"T@	c #06B10A",
"U@	c #21B624",
"V@	c #1DB621",
"W@	c #13B416",
"X@	c #0EB211",
"Y@	c #0BB20E",
"Z@	c #08B10C",
"`@	c #07B10A",
" #	c #07B30C",
".#	c #0EB312",
"                                                                ",
"                                                                ",
"                      . + @ # $ % & * = -                       ",
"                  ; > , ' ) ! ~ { ] ^ / ( _ :                   ",
"                > < [ } | 1 2 3 4 5 6 7 8 : 9 0 a               ",
"            b . c d $ % e f g h i j k l m n o p q r             ",
"            s t u v w x 3 ^ y z A B C D E F G H I J K           ",
"          L M | N O P Q - R S T U V W X Y Z `  ...+.@.#.        ",
"        $.%.&.*.* g h =.7 -.;.;.>.,.'.).!.~.{.].^./.(._.        ",
"      %.:.1 <.] ^ / 6 _ [.}.|.;.;.1.2.3.4.K 5./.6.7.8.9.0.      ",
"      1 O P Q - a.7 8 b.W c.;.d.;.e.f.g.].@.h.i.j.k.l.m.n.      ",
"      * o.h =.p.z A q.r.s.;.|.;.t.u.v.w.x.y.7.z.A.B.C.D.E.F.    ",
"    G.^ H.I._ J.K.L.M.N.;.|.;.|.;.;.O.6.P.Q.R.S.T.U.E.V.W.X.    ",
"    5 6 7 Y.: Z.`. +.+++@+;.;.;.#+$+%+&+*+=+-+n.;+>+,+'+)+!+    ",
"    p.~+A {+]+^+p /+(+_+:+;.;.;.<+[+*+}+|+1+U.2+3+4+5+6+7+8+    ",
"    9+K.9 0+F G Z ~.a+;.|.|.;.;.;.b+T.T.U.c+V.d+e+f+g+h+i+j+    ",
"    {+0  +a q k+ .l+g.m+;.;.|.n+o+l.n.c+p+q+r+s+t+u+v+j+w+x+    ",
"    ^+y+q 2.I J z+A+@.B+;.;.;.C+C.D+E+3+d+F+G+7+H+I+J+K+L+M+    ",
"    .+Z N+O+g.P+@.Q+8.R+;.;.;.S+c+T+U+e+)+t+V+W+X+Y+Z+`+ @.@    ",
"    k+f...+@@@#@(.&+$@;.;.;.%@&@*@'+s+=@V+-@;@>@K+,@ @'@)@!@    ",
"      ~@{@/.]@7.^@/@(@;.|.|._@:@<@[@}@|@1@2@3@L+4@5@6@7@8@9@    ",
"      @.#.0@a@9.0.b@c@;.;.;.;.;.;.;.;.;.;.d@e@ @e@f@g@h@9@      ",
"      0@j.o+i@-+j@>+k@|.;.;.;.;.;.;.;.;.;.l@m@6@n@9@9@9@9@      ",
"        /@o@C.p@q@r@;.;.;.;.;.;.;.;.;.;.;.s@7@9@9@t@u@9@        ",
"          n.c+V.v@w@x@y@z@A@B@C@D@D@D@E@E@F@h@G@u@u@9@9@        ",
"          2+F.'+H@=@u+-@;@>@I@J@K@'@L@M@8@9@u@N@9@O@9@          ",
"            e+G+P@Q@i+X+R@S@4@5@6@f@8@9@N@O@u@G@O@T@            ",
"              U@V@;@Y+Z+W@ @X@Y@Z@`@G@ #u@u@G@9@T@              ",
"                  I@J@K@.#L@M@8@9@u@u@O@u@9@9@                  ",
"                      X@f@8@9@N@O@u@9@9@9@                      ",
"                              8@G@                              ",
"                                                                "};
