/* XPM */
static char *bitcoin__[] = {
/* columns rows colors chars-per-pixel */
"64 64 671 2",
"  	c None",
". 	c #7CC77E",
"+ 	c #7CC77D",
"@ 	c #7BC77C",
"# 	c #78C779",
"$ 	c #77C779",
"% 	c #82C983",
"& 	c #81C882",
"* 	c #80C982",
"= 	c #80C881",
"- 	c #7EC880",
"; 	c #7DC87E",
"> 	c #78C77B",
", 	c #78C679",
"' 	c #76C778",
") 	c #75C677",
"! 	c #74C675",
"~ 	c #72C574",
"{ 	c #6FC672",
"] 	c #6EC570",
"^ 	c #83C984",
"/ 	c #83C985",
"( 	c #7FC780",
"_ 	c #7DC87F",
": 	c #7CC87D",
"< 	c #7BC87C",
"[ 	c #79C67B",
"} 	c #78C77A",
"| 	c #77C678",
"1 	c #75C777",
"2 	c #74C576",
"3 	c #73C674",
"4 	c #72C673",
"5 	c #70C572",
"6 	c #6FC570",
"7 	c #6DC56F",
"8 	c #6CC56E",
"9 	c #6AC46C",
"0 	c #69C36B",
"a 	c #84C986",
"b 	c #82CA83",
"c 	c #7FC881",
"d 	c #7EC87F",
"e 	c #7AC77B",
"f 	c #76C777",
"g 	c #75C676",
"h 	c #73C675",
"i 	c #72C573",
"j 	c #70C672",
"k 	c #6FC571",
"l 	c #6EC470",
"m 	c #6CC56F",
"n 	c #6BC46D",
"o 	c #68C46A",
"p 	c #67C469",
"q 	c #66C468",
"r 	c #63C365",
"s 	c #85C986",
"t 	c #81C982",
"u 	c #80C981",
"v 	c #7AC77C",
"w 	c #79C77A",
"x 	c #74C575",
"y 	c #72C674",
"z 	c #71C673",
"A 	c #6CC56D",
"B 	c #69C46B",
"C 	c #67C468",
"D 	c #65C367",
"E 	c #62C264",
"F 	c #61C363",
"G 	c #5EC260",
"H 	c #84C985",
"I 	c #81C983",
"J 	c #80C882",
"K 	c #7FC781",
"L 	c #7BC87D",
"M 	c #79C77B",
"N 	c #71C674",
"O 	c #6DC56E",
"P 	c #66C367",
"Q 	c #64C366",
"R 	c #63C265",
"S 	c #62C363",
"T 	c #60C262",
"U 	c #5EC261",
"V 	c #5DC260",
"W 	c #5CC15E",
"X 	c #7BC77D",
"Y 	c #78C67A",
"Z 	c #76C677",
"` 	c #74C676",
" .	c #6EC56F",
"..	c #69C46A",
"+.	c #62C364",
"@.	c #5CC25E",
"#.	c #5BC25D",
"$.	c #59C15C",
"%.	c #59C15B",
"&.	c #56C058",
"*.	c #72C672",
"=.	c #67C46A",
"-.	c #63C366",
";.	c #62C365",
">.	c #61C263",
",.	c #5DC25F",
"'.	c #5BC25E",
").	c #5AC15D",
"!.	c #57C15A",
"~.	c #56C158",
"{.	c #55C157",
"].	c #53BF55",
"^.	c #82C883",
"/.	c #83C884",
"(.	c #7FC880",
"_.	c #7CC87E",
":.	c #7AC67B",
"<.	c #77C778",
"[.	c #6AC36B",
"}.	c #5FC261",
"|.	c #5DC15F",
"1.	c #5BC15D",
"2.	c #58C15A",
"3.	c #57C159",
"4.	c #54C056",
"5.	c #52C055",
"6.	c #51BF54",
"7.	c #50BF52",
"8.	c #81C883",
"9.	c #83C983",
"0.	c #7CC87F",
"a.	c #74C776",
"b.	c #73C575",
"c.	c #71C672",
"d.	c #69C46C",
"e.	c #65C366",
"f.	c #61C262",
"g.	c #5DC160",
"h.	c #5DC25E",
"i.	c #5CC25D",
"j.	c #5AC15C",
"k.	c #58C15B",
"l.	c #54C057",
"m.	c #53C056",
"n.	c #52C054",
"o.	c #50BF53",
"p.	c #4FC052",
"q.	c #4EBF50",
"r.	c #4CBF4F",
"s.	c #73C574",
"t.	c #6FC471",
"u.	c #6CC46D",
"v.	c #65C467",
"w.	c #5EC160",
"x.	c #5BC35D",
"y.	c #55C058",
"z.	c #53C054",
"A.	c #51C053",
"B.	c #4FBF52",
"C.	c #4EBF51",
"D.	c #4DBF4F",
"E.	c #4BBF4E",
"F.	c #4BBE4D",
"G.	c #48BE4B",
"H.	c #7FC981",
"I.	c #6EC46F",
"J.	c #6CC46E",
"K.	c #6BC56C",
"L.	c #65C266",
"M.	c #A3DBA5",
"N.	c #9DD99F",
"O.	c #9CD99D",
"P.	c #9CD89D",
"Q.	c #9AD79C",
"R.	c #99D89B",
"S.	c #99D79A",
"T.	c #7ACD7C",
"U.	c #5CC25F",
"V.	c #55C057",
"W.	c #53C055",
"X.	c #51C054",
"Y.	c #4EBF4F",
"Z.	c #49BE4C",
"`.	c #48BD4A",
" +	c #46BE49",
".+	c #44BD47",
"++	c #6AC56C",
"@+	c #69C36A",
"#+	c #80CD81",
"$+	c #FFFFFF",
"%+	c #87D188",
"&+	c #5BC15E",
"*+	c #50C053",
"=+	c #4FBF51",
"-+	c #4EBE51",
";+	c #4DBF4E",
">+	c #49BF4C",
",+	c #48BE4A",
"'+	c #47BD4A",
")+	c #45BE48",
"!+	c #43BD46",
"~+	c #7EC77F",
"{+	c #70C571",
"]+	c #6EC571",
"^+	c #A5DCA7",
"/+	c #53BE55",
"(+	c #59C05B",
"_+	c #56C159",
":+	c #54C055",
"<+	c #4DBF50",
"[+	c #4CBF4E",
"}+	c #4ABF4D",
"|+	c #49BE4B",
"1+	c #47BE4B",
"2+	c #47BE49",
"3+	c #45BD47",
"4+	c #42BD45",
"5+	c #41BD43",
"6+	c #40BD42",
"7+	c #6AC46D",
"8+	c #6AC46B",
"9+	c #D0EDD0",
"0+	c #FEFEFE",
"a+	c #E5F5E6",
"b+	c #50BE53",
"c+	c #55C158",
"d+	c #4ABE4D",
"e+	c #47BE4A",
"f+	c #45BD48",
"g+	c #41BD44",
"h+	c #40BC43",
"i+	c #3FBC41",
"j+	c #3DBC40",
"k+	c #3BBB3E",
"l+	c #76C678",
"m+	c #6BC56D",
"n+	c #53BD55",
"o+	c #B2E2B3",
"p+	c #52C154",
"q+	c #4FBE52",
"r+	c #4BBE4E",
"s+	c #4ABE4C",
"t+	c #46BE48",
"u+	c #43BC46",
"v+	c #42BD44",
"w+	c #40BD44",
"x+	c #3FBC42",
"y+	c #3EBB40",
"z+	c #3CBC40",
"A+	c #3BBC3E",
"B+	c #3ABB3D",
"C+	c #70C671",
"D+	c #63C264",
"E+	c #71C974",
"F+	c #88D38A",
"G+	c #4DBE4F",
"H+	c #40BD43",
"I+	c #3EBC41",
"J+	c #3CBC3E",
"K+	c #3ABB3E",
"L+	c #39BB3C",
"M+	c #38BB3B",
"N+	c #36BA39",
"O+	c #5FC362",
"P+	c #9CD99E",
"Q+	c #4ABF4E",
"R+	c #43BD47",
"S+	c #3CBC3F",
"T+	c #3BBC3D",
"U+	c #38BA3B",
"V+	c #37BB39",
"W+	c #35BB38",
"X+	c #34BA37",
"Y+	c #6DC46F",
"Z+	c #67C369",
"`+	c #C5E9C6",
" @	c #EEF8EE",
".@	c #46BC49",
"+@	c #3ABC3D",
"@@	c #37BB3A",
"#@	c #36BB39",
"$@	c #33BA36",
"%@	c #32BA35",
"&@	c #30BA34",
"*@	c #6FC470",
"=@	c #66C369",
"-@	c #4DBC4F",
";@	c #FAFCFA",
">@	c #FEFFFE",
",@	c #B7E5B9",
"'@	c #42BD46",
")@	c #33BA37",
"!@	c #31BA34",
"~@	c #30B933",
"{@	c #2EB831",
"]@	c #71C574",
"^@	c #66C368",
"/@	c #60C263",
"(@	c #95D796",
"_@	c #A4DDA5",
":@	c #A3DDA4",
"<@	c #A3DCA4",
"[@	c #FFFEFF",
"}@	c #C4E9C4",
"|@	c #9CDB9D",
"1@	c #9BDB9D",
"2@	c #7DD07E",
"3@	c #45BE49",
"4@	c #43BD45",
"5@	c #41BC45",
"6@	c #3DBB40",
"7@	c #36BB3A",
"8@	c #2FB932",
"9@	c #2DB931",
"0@	c #2CB92F",
"a@	c #6DC46E",
"b@	c #67C36A",
"c@	c #64C367",
"d@	c #64C265",
"e@	c #60C362",
"f@	c #57C059",
"g@	c #D7F0D8",
"h@	c #B9E6BA",
"i@	c #39BB3B",
"j@	c #37BB3B",
"k@	c #34BA38",
"l@	c #30BA33",
"m@	c #2EB931",
"n@	c #2CB930",
"o@	c #2BB92E",
"p@	c #2AB82D",
"q@	c #29B82C",
"r@	c #68C469",
"s@	c #66C469",
"t@	c #54BF57",
"u@	c #D8F0D9",
"v@	c #BAE6BB",
"w@	c #42BC43",
"x@	c #41BC44",
"y@	c #3FBB41",
"z@	c #3BBB3D",
"A@	c #38BB3A",
"B@	c #35BA38",
"C@	c #33B935",
"D@	c #2FB933",
"E@	c #2FB831",
"F@	c #2DB930",
"G@	c #2AB92D",
"H@	c #29B82D",
"I@	c #27B82B",
"J@	c #26B82A",
"K@	c #61C364",
"L@	c #5AC25D",
"M@	c #58C05B",
"N@	c #84D185",
"O@	c #91D793",
"P@	c #87D389",
"Q@	c #D0EDD1",
"R@	c #87D589",
"S@	c #87D488",
"T@	c #6ECC70",
"U@	c #3FBD42",
"V@	c #3ABC3E",
"W@	c #3ABB3C",
"X@	c #2EB932",
"Y@	c #2BB82E",
"Z@	c #28B72B",
"`@	c #26B72A",
" #	c #25B829",
".#	c #24B727",
"+#	c #60C261",
"@#	c #59C15D",
"##	c #54BF56",
"$#	c #8ED78F",
"%#	c #44BD46",
"&#	c #42BE45",
"*#	c #40BC42",
"=#	c #3DBC3F",
"-#	c #31BA35",
";#	c #31BA33",
">#	c #2DB82F",
",#	c #28B82C",
"'#	c #28B82B",
")#	c #25B828",
"!#	c #23B726",
"~#	c #22B725",
"{#	c #65C368",
"]#	c #53BF54",
"^#	c #3DB840",
"/#	c #3DB83F",
"(#	c #3BB83E",
"_#	c #7ACE7C",
":#	c #40BB43",
"<#	c #2CB52F",
"[#	c #2AB42D",
"}#	c #36BA3A",
"|#	c #33BA35",
"1#	c #26B829",
"2#	c #25B729",
"3#	c #22B726",
"4#	c #21B724",
"5#	c #20B623",
"6#	c #5EC25F",
"7#	c #58C159",
"8#	c #5EC460",
"9#	c #69CB6B",
"0#	c #32BA34",
"a#	c #30B934",
"b#	c #2DB831",
"c#	c #27B82A",
"d#	c #24B728",
"e#	c #21B725",
"f#	c #20B723",
"g#	c #1FB622",
"h#	c #1DB521",
"i#	c #1CB61F",
"j#	c #64C365",
"k#	c #61C362",
"l#	c #5FC262",
"m#	c #53BF56",
"n#	c #5AC25C",
"o#	c #63C965",
"p#	c #2CB92E",
"q#	c #28B82A",
"r#	c #20B624",
"s#	c #1FB723",
"t#	c #1DB620",
"u#	c #1AB51E",
"v#	c #63C364",
"w#	c #50C052",
"x#	c #58C25B",
"y#	c #62C965",
"z#	c #37BC3A",
"A#	c #32B935",
"B#	c #26B729",
"C#	c #1EB622",
"D#	c #1DB520",
"E#	c #19B51D",
"F#	c #17B41B",
"G#	c #65C766",
"H#	c #62C764",
"I#	c #8BD58D",
"J#	c #71CD73",
"K#	c #56C459",
"L#	c #55C458",
"M#	c #54C557",
"N#	c #3DBD40",
"O#	c #36BB38",
"P#	c #29B82B",
"Q#	c #26B82B",
"R#	c #21B723",
"S#	c #1BB61F",
"T#	c #18B41C",
"U#	c #17B51A",
"V#	c #15B51A",
"W#	c #A4DFA5",
"X#	c #28B52B",
"Y#	c #2BB92F",
"Z#	c #25B728",
"`#	c #23B727",
" $	c #1EB621",
".$	c #1BB51E",
"+$	c #1AB61D",
"@$	c #18B51C",
"#$	c #18B51B",
"$$	c #16B519",
"%$	c #15B418",
"&$	c #13B417",
"*$	c #58C05A",
"=$	c #4ABE4E",
"-$	c #D9F1DA",
";$	c #CBEDCC",
">$	c #33B936",
",$	c #32B936",
"'$	c #31B934",
")$	c #20B724",
"!$	c #1DB621",
"~$	c #1CB71F",
"{$	c #1AB51D",
"]$	c #16B51A",
"^$	c #15B419",
"/$	c #14B417",
"($	c #12B416",
"_$	c #12B415",
":$	c #51BF53",
"<$	c #4EBE50",
"[$	c #34B737",
"}$	c #92DA94",
"|$	c #34BB37",
"1$	c #2AB92E",
"2$	c #25B727",
"3$	c #1FB623",
"4$	c #1CB620",
"5$	c #1BB61E",
"6$	c #19B61D",
"7$	c #15B519",
"8$	c #14B418",
"9$	c #13B416",
"0$	c #11B415",
"a$	c #10B414",
"b$	c #10B413",
"c$	c #44BD48",
"d$	c #43BC45",
"e$	c #68CB6B",
"f$	c #5EC861",
"g$	c #2FB931",
"h$	c #24B627",
"i$	c #17B51B",
"j$	c #14B518",
"k$	c #14B416",
"l$	c #11B314",
"m$	c #0FB413",
"n$	c #0EB311",
"o$	c #51BF52",
"p$	c #4DBE50",
"q$	c #48BD4B",
"r$	c #98DB9A",
"s$	c #22B426",
"t$	c #18B41B",
"u$	c #0EB312",
"v$	c #0DB311",
"w$	c #0BB30F",
"x$	c #49BE4A",
"y$	c #37BA3A",
"z$	c #CEEECF",
"A$	c #D4F0D5",
"B$	c #29B72C",
"C$	c #2DB92F",
"D$	c #2AB82C",
"E$	c #1EB521",
"F$	c #11B416",
"G$	c #0EB313",
"H$	c #0CB310",
"I$	c #0AB20D",
"J$	c #4CC04E",
"K$	c #49BD4C",
"L$	c #3EBC42",
"M$	c #3CBB3F",
"N$	c #28B62B",
"O$	c #98DC9A",
"P$	c #27B72B",
"Q$	c #15B518",
"R$	c #0FB313",
"S$	c #0DB310",
"T$	c #0CB30F",
"U$	c #09B30E",
"V$	c #09B20D",
"W$	c #08B20B",
"X$	c #4BBF4D",
"Y$	c #59C65C",
"Z$	c #63CA65",
"`$	c #2DBA30",
" %	c #2CB82F",
".%	c #22B825",
"+%	c #1DB720",
"@%	c #19B41D",
"#%	c #0AB30E",
"$%	c #07B10B",
"%%	c #07B20B",
"&%	c #45BE47",
"*%	c #3EBC40",
"=%	c #3CBB3E",
"-%	c #8BD78D",
";%	c #85D687",
">%	c #85D686",
",%	c #83D585",
"'%	c #82D584",
")%	c #80D582",
"!%	c #7FD582",
"~%	c #7FD481",
"{%	c #7ED580",
"]%	c #7DD47F",
"^%	c #7CD47E",
"/%	c #62CD64",
"(%	c #13B316",
"_%	c #0CB210",
":%	c #0BB30E",
"<%	c #08B20C",
"[%	c #46BD49",
"}%	c #3FBC43",
"|%	c #3BBC3F",
"1%	c #C3EAC4",
"2%	c #8CDA8E",
"3%	c #0DB312",
"4%	c #08B20D",
"5%	c #07B30B",
"6%	c #08B30C",
"7%	c #1FB322",
"8%	c #4EC651",
"9%	c #0CB20F",
"0%	c #0AB20F",
"a%	c #06B20A",
"b%	c #08B30B",
"c%	c #41BD45",
"d%	c #35BA37",
"e%	c #32B934",
"f%	c #48C14C",
"g%	c #06B009",
"h%	c #0FB412",
"i%	c #0DB212",
"j%	c #09B20E",
"k%	c #09B20C",
"l%	c #3FBB42",
"m%	c #34BA36",
"n%	c #80D482",
"o%	c #D8F2D9",
"p%	c #05B009",
"q%	c #0DB210",
"r%	c #2AB72D",
"s%	c #B6E6B7",
"t%	c #8FDB90",
"u%	c #0CB211",
"v%	c #09B30D",
"w%	c #08B10C",
"x%	c #38BB3C",
"y%	c #30B932",
"z%	c #52C855",
"A%	c #11B115",
"B%	c #12B115",
"C%	c #10B114",
"D%	c #0FB012",
"E%	c #0DB011",
"F%	c #0CB00F",
"G%	c #0BB00E",
"H%	c #09AF0D",
"I%	c #08AF0B",
"J%	c #06AF0A",
"K%	c #05AF09",
"L%	c #03AE07",
"M%	c #02AE05",
"N%	c #00AE04",
"O%	c #00AD02",
"P%	c #00AD01",
"Q%	c #00AD00",
"R%	c #00AC00",
"S%	c #00AB00",
"T%	c #05B10A",
"U%	c #32BA36",
"V%	c #2CB830",
"W%	c #21B624",
"X%	c #1AB51F",
"Y%	c #15B41A",
"Z%	c #12B417",
"`%	c #0EB412",
" &	c #0EB211",
".&	c #07B30C",
"+&	c #2FBA32",
"@&	c #1CB61E",
"#&	c #19B51E",
"$&	c #10B314",
"%&	c #0AB20E",
"&&	c #2AB82E",
"*&	c #19B51C",
"=&	c #07B20A",
"-&	c #22B724",
";&	c #1BB51F",
">&	c #0FB312",
",&	c #24B828",
"'&	c #24B726",
")&	c #22B625",
"!&	c #1AB61E",
"~&	c #18B51D",
"{&	c #1FB724",
"]&	c #10B415",
"^&	c #10B313",
"/&	c #0DB211",
"(&	c #0BB20E",
"_&	c #11B414",
":&	c #0BB20F",
"<&	c #07B20C",
"[&	c #0CB311",
"                                                                                                                                ",
"                                                                                                                                ",
"                                                                                                                                ",
"                                                            . + @ # $                                                           ",
"                                                % & * = - ; + @ > , ' ) ! ~ { ]                                                 ",
"                                            ^ / % * ( _ : < [ } | 1 2 3 4 5 6 7 8 9 0                                           ",
"                                      a a / b * c d ; < e } $ f g h i j k l m n 9 o p q r                                       ",
"                                    s / ^ t u - _ : v w $ f 1 x y z j ] m A 9 B p C D r E F G                                   ",
"                                s H ^ I J K _ L @ M w | 1 ! 3 N 5 6 7 O n B o p P Q R S T U V W                                 ",
"                              s / % J c d _ X e Y # Z ` h y 5 k  .m A 9 ..p q Q r +.T T G @.#.$.%.&.                            ",
"                            a ^ t = - ; : @ M # ' g ` y *.k 6 7 A 9 0 =.q D -.;.>.T G ,.'.).%.!.~.{.].                          ",
"                        ^./.% J (.d _.v :.} <.Z ` 3 z j k 7 8 n [.o p D Q ;.S T }.|.'.1.%.2.3.{.4.5.6.7.                        ",
"                      8.9.t c d 0.X e M $ ' a.b.y c.k  .O n d...p q e.r +.f.}.g.h.i.j.k.3.&.l.m.n.o.p.q.r.                      ",
"                      % c (.; : @ w # f ) ! s.z k t.7 u.n 0 o p v.Q ;.F T w.,.x.j.%.2.~.y.4.z.A.B.C.D.E.F.G.                    ",
"                    J H.d _.@ M } <.) ` h 4 5 k I.J.K.L.M.N.O.P.Q.R.S.T.G U.j.j.2.3.V.l.W.X.7.C.Y.r.F.Z.`. +.+                  ",
"                  c - _.X v w # ' ` b.y c.k l O n ++@+#+$+$+$+$+$+$+$+%+&+j.k.3.~.V.W.n.*+=+-+;+E.>+,+'+)+.+!+                  ",
"                ~+_ L @ M $ <.) x 3 z {+]+7 8 ++B p p ^+$+$+$+$+$+$+$+/+(+2._+l.:+5.A.p.q.<+[+}+|+1+2+3+!+4+5+6+                ",
"                _.: :.} $ f g b.4 j 6  .8 7+8+..p D >.9+$+$+$+$+$+0+a+b+3.c+4.].X.*+B.<+[+d+|+`.e+f+3+!+g+h+i+j+k+              ",
"              @ e [ # l+` ! y c.k ] m m+9 B p q v.R n+$+$+$+$+$+$+0+o+c+l.4.p+A.q+q.r.r+s+G.e+t+3+u+v+w+x+y+z+A+B+              ",
"              M # ' Z ! 3 z C+]+7 8 K.B o q v.Q D+F E+$+0+$+$+$+$+$+F+4.n.A.p.C.G+r+F.Z.,+ +3+!+v+g+H+I+j+J+K+L+M+N+            ",
"            # <.l+` b.4 c.]+ .8 K.9 o p P Q D+E T O+P+$+$+$+$+$+$+$+n.X.*+C.q.[+Q+s+G. +t+R+!+v+h+I+j+S+T+B+U+V+W+X+            ",
"            ' g h y c.C+] Y+m+9 B Z+q D r +.>.}.G 1.`+0+$+$+$+$+$+ @.@=+-+D.E.s+|+2+ +.+!+v+H+x+i+S+J++@M+@@#@X+$@%@&@          ",
"          g ! 3 z j *@7 A m+B o =@D Q r F T }.G ,.-@;@$+$+$+$+$+>@,@C.=+r.}+|+,+ +)+!+'@5+H+I+j+A+A+L+M+#@W+)@%@!@~@{@          ",
"          h ]@c.k Y+8 m+9 o p ^@Q r S /@}.W (@_@:@<@$+$+$+$+$+$+[@}@|@1@2@e+2+3@.+4@5@H+x+6@S+T+L+M+7@W+X+$@!@&@8@9@0@          ",
"          z k ] a@A 9 B b@q c@d@+.f.e@G ,.f@g@$+$+0+$+$+$+$+$+$+$+$+$+$+h@!+f+!+4+h+x+I+S+J+B+i@j@#@k@$@%@l@8@m@n@o@p@q@        ",
"          ]+I.8 7+B r@s@D Q r F T }.V @.).t@u@$+$+$+$+$+$+$+$+[@$+$+$+$+v@w@4+x@6+y@j+S+z@L+A@#@B@$@C@!@D@E@F@o@G@H@I@J@        ",
"         .O n B o p D e.r K@e@}.V @.L@j.M@V.N@O@P@;@$+$+$+$+$+$+Q@R@R@S@T@H+h+U@j+S+V@W@M+@@W+X+$@!@l@X@m@n@Y@H@Z@`@ #.#        ",
"        n 9 B p q D Q E F +#G ,.@.@#%.!._+V.##5.X.$+$+$+$+$+$+$+$# +%#&#x@*#I+=#k+B+i@j@#@X+$@-#;#8@m@>#o@H@,#'# #)#!#~#        ",
"        d.o C {#Q ;.F e@U V @.1.%.2.3.~.]#^#/#(#_#$+$+$+$+$+$+$+:#<#[#k+I+j+S+B+L+A@}#W+)@|#!@l@m@F@0@p@q@I@1#2#.#3#4#5#        ",
"        p ^@Q -.+.T }.6#,.1.j.k.7#c+V.].8#$+$+$+$+0+$+$+$+$+$+0+$+$+$+9#S+A+W@U+@@B@k@$@0#a#X@b#0@o@H@,#c#2#d#!#e#f#g#h#i#      ",
"        D j#;.k#l#G ,.'.j.%.f@~.V.m#5.A.n#$+$+$+$+$+$+$+$+$+$+$+$+$+$+o#+@L+@@#@X+$@%@!@8@m@n@p#p@q@q# #)#!#~#r#s#h#t#i#u#      ",
"        v#F T }.V @.L@$.2.~.c+4.W.X.w#=+x#$+$+$+0+$+$+$+$+$+0+$+$+$+$+y#A@z#B@)@A#!@~@m@b#0@G@q@Z@B#)#.#3#e#5#C#D#i#u#E#F#      ",
"        F }.G @.#.%.%.7#~.l.W.5.7.=+C.r.r.G#H#I#$+$+$+$+$+$+$+J#K#L#M#N#O#X+$@-#l@8@m@0@o@H@P#Q#2#.#!#e#R#s#h#i#S#E#T#U#V#      ",
"        }.,.'.j.%.!.3.V.:+5.A.7.C.D.E.d+|+,+ +W#0+$+$+$+$+0+$+X#i@@@O#B@$@%@l@8@X@F@Y#G@P#I@2#Z#`#~#4#f# $t#.$+$@$#$$$%$&$      ",
"        @.#.$.*$_+V.4.m.X.w#=+<+[+=$s+G.2+)+6@-$$+$+$+$+$+$+;$>$#@B@X+,$'$~@X@F@0@o@q@'#J@)#.#3#4#)$C#!$~${$E#F#]$^$/$($_$      ",
"        j.k.3._+l.W.n.:$B.<$D.E.s+G.e+t+.+!+[$$+0+$+$+$+$+$+}$#@|$$@'$l@8@b#0@1$H@,#c# #2$`#e#)$3$t#4$5$6$@$U#7$8$9$0$a$b$      ",
"        2.~.V.4.5.:$w#C.D.[+d+G.,+ +c$R+d$5+e$$+$+$+$+$+$+$+f$$@$@!@~@g$>#0@p@q@I@1#d#h$3#4#3$ $t#S#{$@$i$$$j$k$($l$m$n$        ",
"        y.l.5.n.o$=+p$[+F.Z.q$2+)+.+4@x@H+x+r$$+$+$+$+$+0+$+s$!@~@X@F@0@o@q@'#1# #.#!#4#)$C# $i#u#E#t$U#^$8$($0$a$u$v$w$        ",
"        W.n.A.B.<+D.E.d+x$'+t+c$!+4+5+x+6@y$z$$+$+$+$+$+$+A$B$8@m@C$o@D$,#c# #d#!#e#4#C#E$4$5$+$@$F#7$8$&$F$l$G$v$H$w$I$        ",
"          o.C.G+J$}+K$`. +3+%#4+g+*#L$j+M$N$$+0+$+$+$+$+0+O$m@F@0@p@q@P$1#Z#`#~#4#g#C#!$S#{$E#i$]$Q$&$($a$R$u$S$T$U$V$W$        ",
"          q.r.X$K$q$2+3@%#!+g+H+i+j+S+k+L+Y$$+$+$+$+$+$+$+Z$`$ %p@q@'#1#)#!#.%)$s#g#+%S#@%@$]$$$/$($0$b$u$v$H$#%V$$%%%          ",
"          X$s+G.e+)+&%u+4+H+x+*%S+=%B+i@A@-%$+$+$+$+$+$+$+;%;%>%,%,%'%'%)%!%~%{%]%]%^%/%8$$$8$(%($a$m$v$_%:%V$<%%%%%%%          ",
"            e+[%f+%#4+x@}%I+j+|%B+L+M+#@'$1%$+$+$+$+$+$+0+$+$+$+$+$+$+$+$+$+$+$+$+$+$+2%^$&$($0$m$3%S$w$#%4%5%%%6%6%<%          ",
"            )+&%!+v+h+x+y+S+k+L+i@7@W+X+7%$+$+$+$+$+$+$+$+$+$+$+$+$+$+$+$+$+$+$+$+$+$+8%9$0$b$G$v$9%0%V$<%a%%%b%5%%%            ",
"            u+c%H+x+j+=#|%W@U+@@#@d%$@e%f%$+0+$+$+$+$+$+$+$+$+$+$+$+$+$+$+$+$+$+$+$+$+g%a$h%i%S$w$j%k%%%%%b%5%6%<%%%            ",
"              U@l%j+=%+@L+U+#@B@m%%@!@l@n%$+$+$+$+$+$+$+$+$+$+$+$+$+$+$+$+$+$+$+$+$+o%p%u$q%H$#%V$%%%%6%<%6%6%%%5%              ",
"                S+A+L+U+@@W+k@$@%@l@8@r%s%0+$+$+$+$+$+$+$+$+$+$+$+$+$+$+$+$+$+$+$+0+t%u%H$#%v%w%%%5%6%b%6%6%6%6%%%              ",
"                B+x%@@#@X+)@%@!@y%m@F@@%$+$+$+$+$+$+$+$+$+$+$+$+$+$+$+$+$+$+$+$+$+$+z%T$I$<%%%5%5%6%6%6%6%6%6%%%                ",
"                  #@O#X+%@!@D@m@9@0@G@Y#A%B%C%D%E%F%G%H%I%J%K%L%M%N%O%P%Q%Q%R%R%R%S%T%V$$%5%6%b%6%6%6%6%6%%%6%%%                ",
"                  B@U%%@l@8@F@V%o@H@P#c#B#.#!#e#W%C#!$i#X%6$@$U#Y%/$Z%_$a$`% &H$#%V$%%%%b%W$.&6%6%6%6%6%6%6%%%                  ",
"                    !@+&m@C$ %H@q@c#J@d#`#~#)$3$ $4$@&#&@$i$$$^$&$($$&R$n$H$w$%&<%%%%%5%6%6%6%6%6%6%6%6%6%%%                    ",
"                      b#0@&&q@'#J@2#`#!#)$f#C#t#i#u#*&#$]$7$/$($0$b$u$v$H$#%V$$%=&<%b%6%6%6%6%6%6%6%6%<%%%                      ",
"                        p@,#c# #d#!#-&)$g#!$i#;&E##$F#7$j$9$F$$&>&v$H$:%V$w%%%5%<%b%6%6%6%6%6%6%6%6%%%%%                        ",
"                          J@,&'&)&)$s#C#t#S#!&~&i$V#Q$&$0$l$R$u$S$w$#%V$%%5%W$6%6%6%6%6%6%6%6%6%6%<%%%                          ",
"                            !#4#{&C#!$i#u#*&#$]$7$/$($]&^&>&/&H$(&V$$%%%.&b%.&6%6%6%6%6%6%6%6%<%%%%%                            ",
"                                !$t#S#E#@$U#7$8$9$0$_&>&/&S$:%V$<%%%%%6%5%6%6%6%6%6%6%6%6%6%<%5%$%                              ",
"                                  .$@$i$]$%$&$($0$R$n$S$:&#%V$%%%%.&6%6%6%6%6%6%6%6%6%6%6%<%%%                                  ",
"                                      7$/$($0$b$G$S$T$#%V$w%%%<&6%6%6%6%6%6%6%6%6%6%5%%%%%<&                                    ",
"                                          0$>&n$H$w$V$<%%%5%<%b%6%6%6%6%6%6%6%b%<%5%%%%%                                        ",
"                                              [&%&<%$%5%<&<%6%6%6%<%6%6%6%%%5%%%W$                                              ",
"                                                      $%%%<%<%%%5%6%%%<%%%                                                      ",
"                                                                                                                                ",
"                                                                                                                                ",
"                                                                                                                                "};
